<?xml version="1.0" standalone="no"?>
<!DOCTYPE svg PUBLIC "-//W3C//DTD SVG 20010904//EN"
 "http://www.w3.org/TR/2001/REC-SVG-20010904/DTD/svg10.dtd">
<svg version="1.0" xmlns="http://www.w3.org/2000/svg"
 width="460.000000pt" height="460.000000pt" viewBox="0 0 460.000000 460.000000"
 preserveAspectRatio="xMidYMid meet">
<metadata>
Created by potrace 1.14, written by Peter Selinger 2001-2017
</metadata>
<g transform="translate(0.000000,460.000000) scale(0.100000,-0.100000)"
fill="#000000" stroke="none">
<path d="M2702 4570 c-9 -17 -47 -81 -84 -143 -37 -62 -81 -137 -96 -167 -89
-171 -154 -289 -224 -405 -42 -71 -92 -157 -109 -190 -17 -33 -46 -80 -63
-105 -18 -25 -40 -61 -49 -80 -8 -19 -27 -46 -41 -59 -14 -14 -26 -34 -26 -47
0 -12 -6 -24 -14 -27 -17 -7 -76 -93 -76 -111 0 -8 -7 -19 -15 -26 -8 -7 -15
-20 -15 -29 0 -9 -20 -43 -45 -76 -25 -33 -45 -67 -45 -77 0 -14 -6 -16 -29
-12 -34 7 -43 -4 -44 -52 -1 -42 -18 -39 -31 4 -5 18 -13 32 -17 32 -12 0 -11
-57 1 -65 6 -3 10 -14 10 -23 0 -12 -8 -7 -29 16 -17 17 -32 32 -35 32 -5 0
-57 -21 -65 -26 -2 -2 7 -19 19 -39 12 -20 20 -38 17 -41 -9 -9 -47 16 -47 31
0 15 -18 30 -26 22 -3 -3 4 -23 15 -46 26 -50 26 -51 1 -51 -15 0 -20 -7 -20
-26 0 -41 -33 -27 -42 19 -13 64 -45 116 -76 123 -15 4 -35 14 -45 22 -14 13
-27 14 -80 5 -134 -23 -198 -56 -218 -111 -5 -15 -16 -39 -24 -54 -14 -24 -14
-28 2 -37 17 -9 17 -10 1 -16 -21 -8 -38 1 -38 21 0 27 -52 105 -75 114 -13 5
-157 9 -322 9 -275 0 -457 12 -535 37 -20 6 -72 -40 -66 -59 10 -28 85 -50
213 -62 142 -13 511 -13 615 0 l65 8 -19 -22 c-19 -21 -115 -71 -137 -71 -7 0
-35 -7 -63 -15 -166 -48 -261 -65 -375 -65 -141 -1 -260 -15 -279 -34 -9 -9
-12 -24 -8 -40 6 -26 7 -26 114 -26 212 0 367 18 478 56 55 19 108 34 117 34
9 0 43 16 76 35 32 19 66 35 74 35 21 0 87 -79 87 -104 0 -11 -9 -30 -21 -42
-18 -19 -19 -25 -7 -43 10 -17 10 -25 0 -41 -10 -17 -9 -25 4 -46 15 -22 15
-32 5 -80 -13 -57 -7 -154 10 -154 5 0 9 5 9 10 0 6 5 10 11 10 8 0 8 -4 2
-12 -16 -21 2 -128 31 -185 14 -29 53 -81 86 -116 33 -36 60 -69 60 -75 0 -6
24 -36 54 -67 49 -52 57 -56 92 -53 30 2 40 8 42 23 2 11 16 54 32 95 34 87
56 205 64 342 7 105 12 128 29 128 7 0 7 -4 -1 -12 -18 -18 -15 -60 12 -162
13 -50 30 -129 37 -176 6 -47 25 -130 42 -185 16 -55 32 -120 34 -144 3 -24
14 -52 24 -62 10 -10 22 -31 25 -46 4 -16 15 -44 26 -63 10 -19 18 -47 18 -63
0 -15 9 -46 20 -69 11 -22 17 -45 14 -49 -3 -5 2 -44 11 -86 12 -56 24 -86 42
-106 33 -34 40 -34 81 1 37 32 42 67 11 77 -21 7 -21 7 3 32 21 22 23 35 26
141 7 291 13 351 42 377 25 22 53 9 46 -21 -5 -17 -2 -24 9 -24 9 0 15 -9 15
-25 0 -30 16 -33 23 -5 7 26 27 26 34 0 6 -21 23 -28 23 -9 0 15 39 69 51 69
5 0 9 -15 9 -34 0 -19 5 -38 11 -42 6 -3 9 -19 5 -35 -7 -36 3 -37 34 -4 31
33 50 32 50 -2 0 -18 -12 -37 -35 -59 -41 -37 -49 -84 -15 -84 24 0 26 -22 4
-41 -13 -11 -15 -29 -9 -128 4 -64 11 -121 16 -127 5 -6 13 -54 18 -105 5 -52
16 -107 25 -124 9 -16 19 -44 22 -62 3 -18 14 -35 24 -38 11 -3 20 -20 24 -44
3 -21 13 -44 21 -51 10 -8 13 -21 9 -39 -10 -41 -23 -51 -66 -51 -26 0 -41 -5
-45 -16 -16 -43 92 -43 136 0 24 24 26 34 26 105 0 49 -5 84 -13 93 -28 34
-41 126 -46 313 -1 49 0 50 26 47 24 -2 28 1 33 35 4 21 10 48 16 61 11 28 11
32 1 32 -5 0 -17 -18 -27 -40 -22 -48 -35 -51 -35 -7 0 99 27 141 62 98 23
-29 24 -96 2 -176 -19 -70 -21 -158 -7 -270 11 -86 20 -115 34 -115 14 0 11
76 -8 184 -13 76 -14 101 -5 104 8 2 12 27 12 70 1 75 11 133 39 207 21 56 44
143 61 226 8 40 19 64 40 84 17 16 32 27 34 24 2 -2 13 -49 24 -104 14 -71 18
-112 12 -140 -4 -22 -19 -92 -33 -155 -13 -63 -24 -124 -25 -135 -1 -11 -6
-45 -12 -75 -9 -45 -12 -191 -8 -347 1 -16 -2 -44 -6 -63 l-8 -35 22 33 c29
42 40 41 33 -3 -5 -29 -1 -40 16 -56 11 -11 21 -27 21 -37 0 -9 10 -41 22 -70
21 -48 27 -54 66 -64 46 -11 76 -44 70 -75 -3 -14 -9 -11 -26 17 l-22 35 4
-95 c2 -53 11 -114 20 -138 9 -24 17 -68 19 -98 l2 -54 34 0 34 0 -7 63 c-4
34 -11 94 -16 132 -4 39 -9 75 -11 80 -2 6 1 20 5 33 4 12 2 38 -4 58 -10 30
-9 38 5 54 12 13 26 18 40 14 39 -10 44 4 85 246 6 30 10 86 10 124 0 59 2 67
14 56 23 -18 44 -88 51 -167 5 -60 12 -82 40 -122 18 -28 36 -70 40 -93 4 -24
13 -54 20 -68 7 -14 21 -74 30 -135 30 -185 30 -194 6 -219 -28 -30 -18 -56
21 -56 l29 0 1 123 c0 67 1 145 2 172 1 43 -4 56 -33 92 -32 40 -34 63 -6 63
25 0 27 20 6 65 -26 54 -26 55 -2 55 23 0 112 -94 139 -147 18 -34 38 -53 57
-53 2 0 5 10 7 23 2 14 11 23 27 25 32 5 48 -12 31 -33 -21 -25 4 -44 27 -22
41 40 94 67 119 61 18 -5 24 -2 24 11 0 11 5 15 15 11 12 -4 15 3 15 34 0 28
5 42 19 49 10 6 26 27 36 47 13 27 22 35 36 31 14 -4 19 0 19 16 0 16 3 18 12
9 21 -21 30 -13 22 20 -6 29 -5 31 9 19 14 -11 15 -9 10 25 -5 32 -4 36 10 31
13 -5 17 -1 17 17 0 14 5 26 11 28 17 6 13 158 -4 176 -12 11 -19 11 -50 -2
-71 -29 -219 -55 -297 -51 -41 2 -96 3 -122 4 -48 0 -48 0 -48 34 0 19 7 48
15 63 8 16 15 50 15 75 0 55 14 70 61 67 19 -1 43 2 53 7 17 7 18 5 12 -18 -8
-34 7 -35 22 -3 8 19 18 24 46 23 21 -1 43 6 56 18 19 18 20 18 20 0 0 -10
-10 -29 -21 -41 -20 -22 -21 -23 -2 -18 16 5 24 -3 37 -36 18 -46 15 -60 -9
-40 -10 8 -15 9 -15 1 0 -6 -9 -11 -19 -11 -16 0 -18 -5 -12 -28 5 -20 18 -31
47 -41 35 -12 47 -12 95 2 126 36 130 36 136 21 3 -8 16 -14 30 -14 22 0 24 3
19 26 -6 21 -4 25 8 21 21 -8 20 12 -1 35 -17 19 -16 19 12 12 l29 -7 -22 35
c-12 20 -22 38 -22 41 0 13 29 -6 33 -21 3 -10 5 3 6 26 1 29 -6 53 -19 72
-18 25 -18 29 -3 34 14 6 14 9 -5 27 -26 24 -28 57 -5 74 10 8 16 25 15 46 -2
55 -7 87 -14 95 -13 13 -9 34 7 34 23 0 18 26 -7 43 l-23 15 28 -5 c30 -6 33
3 13 30 -8 10 -12 26 -9 37 3 11 -2 22 -15 29 -10 6 -25 24 -32 40 -6 16 -18
32 -26 35 -16 6 -19 42 -5 51 14 8 10 87 -6 110 -7 11 -13 34 -13 51 0 24 -8
39 -32 59 l-32 27 24 18 25 19 -29 22 c-54 42 -76 66 -76 82 0 16 -20 27 -50
27 -9 0 -23 7 -30 15 -7 8 -27 15 -44 15 -28 1 -29 2 -13 14 25 19 22 23 -28
30 -47 8 -60 24 -25 33 29 8 24 16 -22 38 -23 11 -41 25 -41 30 0 6 17 19 37
30 21 11 54 34 74 51 32 28 37 38 37 75 0 43 1 44 45 57 70 21 173 63 195 81
11 9 36 25 55 35 19 11 56 37 81 58 26 21 51 38 57 38 6 0 12 3 14 8 2 4 41
39 88 78 122 103 288 270 326 329 48 75 90 172 105 237 15 71 2 95 -67 129
-39 19 -68 23 -173 27 -194 6 -401 -31 -636 -114 -55 -20 -109 -38 -120 -41
-11 -3 -38 -13 -60 -23 -110 -50 -135 -60 -145 -60 -11 0 -49 -18 -338 -157
-63 -30 -117 -52 -120 -48 -3 3 0 16 8 28 40 62 100 192 100 217 0 24 -6 30
-34 40 -54 17 -62 33 -37 74 12 19 25 36 30 38 10 4 81 153 81 171 0 7 8 40
19 73 10 32 27 104 36 159 10 55 24 125 32 155 7 30 18 107 24 170 5 63 14
142 19 175 6 33 10 77 10 98 0 30 -4 37 -20 37 -17 0 -20 -7 -20 -52 0 -66 -7
-76 -61 -93 l-44 -14 35 0 c47 -2 65 -14 55 -37 -5 -11 -7 -54 -6 -98 4 -90 0
-96 -69 -96 -25 0 -52 -5 -60 -10 -11 -7 1 -10 42 -10 59 0 72 -7 58 -30 -5
-8 -39 -16 -92 -21 -45 -4 -93 -11 -105 -14 -13 -4 -30 -4 -39 -1 -26 10 -1
32 57 51 62 21 60 27 -4 12 -66 -15 -74 -4 -52 65 10 29 24 62 31 73 8 11 14
29 14 40 0 12 16 35 35 52 19 17 35 36 35 42 0 6 12 17 28 24 15 6 29 15 32
19 3 4 24 12 45 17 81 19 -10 11 -121 -10 -60 -12 -122 -24 -138 -26 l-29 -6
18 30 c11 18 37 39 64 51 41 18 43 20 19 21 -16 1 -28 6 -28 11 0 6 -19 9 -42
9 -24 -1 -33 -4 -20 -6 31 -6 28 -17 -13 -39 -27 -14 -31 -20 -20 -27 27 -15
16 -37 -35 -69 -48 -30 -50 -32 -33 -50 14 -15 15 -21 4 -27 -13 -8 -32 -37
-50 -78 -5 -11 -15 -24 -21 -28 -6 -4 -20 -26 -31 -51 -12 -24 -34 -55 -49
-67 -22 -19 -26 -27 -18 -42 9 -14 3 -24 -26 -51 -21 -19 -34 -39 -31 -44 8
-13 -48 -70 -69 -70 -20 0 -21 39 -1 46 8 4 15 15 15 27 0 30 88 213 163 340
39 67 71 104 118 140 16 12 18 17 7 13 -21 -6 -22 1 -5 37 6 15 23 31 37 36
22 8 20 10 -18 10 -38 1 -45 -3 -60 -29z m318 -80 c0 -5 -10 -15 -22 -21 -13
-7 -25 -15 -28 -18 -10 -13 -77 -48 -114 -61 -21 -7 -42 -22 -48 -35 -10 -23
-46 -45 -73 -45 -21 0 -19 4 20 60 19 27 35 54 35 60 0 16 36 30 123 50 100
22 107 22 107 10z m-123 -136 c3 -8 1 -20 -5 -26 -6 -6 -8 -16 -6 -23 8 -19
-27 -55 -53 -55 -25 0 -37 -15 -37 -49 -1 -28 -51 -66 -126 -95 -25 -10 -51
-21 -59 -24 -22 -8 -3 38 29 73 15 17 31 45 35 63 5 26 15 36 50 52 24 11 48
20 54 20 21 0 60 23 54 33 -6 9 33 46 50 47 4 0 10 -7 14 -16z m-39 -176 c-3
-7 -15 -19 -29 -25 -24 -13 -24 -13 -1 -13 33 0 27 -27 -10 -47 l-33 -18 28
-3 c30 -4 37 -31 14 -51 -13 -10 -119 -41 -125 -36 -9 8 16 39 47 60 19 14 30
25 23 25 -16 0 -16 35 1 52 7 7 20 25 30 41 17 27 63 39 55 15z m258 -72 c32
-24 3 -40 -99 -53 -51 -7 -104 -15 -119 -19 -34 -8 -38 12 -9 47 19 24 20 24
187 37 11 1 29 -4 40 -12z m-407 -42 c-12 -13 -38 -27 -58 -30 l-36 -7 27 -9
c24 -8 26 -12 15 -29 -22 -37 -147 -78 -147 -49 0 6 21 23 46 39 40 26 43 30
22 33 -22 3 -22 4 10 27 38 27 123 60 135 53 5 -2 -2 -15 -14 -28z m399 -36
c-2 -6 -20 -17 -39 -24 -25 -9 -28 -13 -13 -13 27 -1 47 -24 42 -48 -4 -20
-88 -47 -183 -58 -50 -7 -55 -6 -55 12 0 10 5 24 12 31 9 9 9 15 0 24 -19 19
-14 46 10 59 44 24 233 38 226 17z m-273 -48 c12 -19 -33 -47 -93 -59 -34 -6
-64 -16 -67 -21 -9 -14 -35 -12 -35 2 0 7 12 25 27 40 19 20 37 28 62 28 20 0
43 5 51 10 19 12 47 13 55 0z m-225 -64 c0 -24 -39 -63 -70 -69 -31 -7 -42
-27 -15 -27 8 0 15 -8 15 -19 0 -20 -39 -51 -65 -51 -17 0 -21 35 -5 45 6 3
15 26 21 50 10 38 16 46 57 64 56 24 62 25 62 7z m-180 -16 c-6 -11 -18 -20
-27 -20 -14 0 -14 2 2 20 10 11 22 20 27 20 5 0 4 -9 -2 -20z m390 1 c0 -24
-36 -51 -68 -51 -12 0 -33 -7 -46 -15 -29 -19 -116 -32 -116 -17 0 19 63 60
106 70 22 5 49 14 60 20 31 19 64 15 64 -7z m256 -26 c3 -8 -1 -24 -10 -37 -9
-12 -16 -34 -16 -48 0 -67 -62 -221 -97 -243 -7 -4 -13 -14 -13 -22 0 -8 -13
-29 -29 -47 -28 -31 -30 -32 -48 -15 -25 22 -47 22 -39 1 9 -24 -11 -42 -53
-50 -70 -13 -211 -51 -219 -59 -4 -4 3 -5 16 -2 44 11 11 -33 -41 -52 -15 -6
-27 -17 -27 -26 0 -8 -18 -24 -39 -35 -22 -11 -42 -24 -46 -29 -3 -6 -25 -19
-48 -31 -23 -12 -75 -46 -116 -76 -41 -30 -79 -54 -86 -54 -7 0 -18 -7 -25
-15 -10 -12 -16 -13 -26 -4 -21 18 -17 39 11 49 14 5 25 12 25 15 0 2 -11 0
-25 -5 -32 -12 -40 2 -15 25 11 10 20 23 20 29 0 6 19 24 43 40 23 16 34 26
25 23 -28 -10 -33 14 -7 34 13 10 47 26 74 36 38 13 45 18 28 21 -28 4 -29 14
-5 34 17 15 28 20 142 54 30 9 61 19 68 22 6 2 12 -3 12 -12 0 -21 -42 -47
-120 -73 l-65 -21 50 6 c47 5 49 4 36 -12 -21 -25 -105 -66 -136 -66 -14 0
-25 -4 -25 -10 0 -5 10 -10 23 -10 21 0 20 -1 -8 -25 -16 -13 -34 -24 -39 -25
-13 0 -46 -31 -46 -42 0 -5 21 3 47 17 27 14 56 25 65 25 10 0 18 7 18 15 0
17 48 64 66 65 6 0 19 10 30 21 23 26 94 72 111 72 8 0 13 14 13 34 0 28 5 36
35 50 26 13 32 20 24 29 -16 19 -3 32 44 45 22 6 46 16 52 23 9 12 29 19 133
46 61 16 58 41 -5 34 -27 -3 -55 -8 -63 -11 -91 -29 -280 -34 -280 -7 0 18
-30 17 -54 -1 -19 -15 -19 -15 2 -15 24 0 29 -12 10 -28 -15 -11 -142 -52
-164 -52 -23 0 2 39 33 51 14 5 23 12 19 16 -10 11 36 53 58 53 12 0 39 9 61
19 l40 19 -39 -5 -38 -6 17 27 c22 32 51 50 60 36 3 -5 15 -10 25 -10 29 0 31
-13 11 -54 -12 -23 -15 -36 -7 -37 41 -5 97 24 118 60 9 17 26 31 39 33 14 2
25 11 27 23 6 29 21 45 44 45 24 0 79 28 95 49 10 13 14 13 21 3 7 -10 25 -12
71 -6 34 3 64 10 66 15 11 16 -64 41 -101 34 -20 -3 -34 -2 -30 3 4 7 75 23
166 36 47 6 51 6 56 -9z m-606 -15 c0 -5 -6 -10 -13 -10 -14 0 -43 -50 -53
-92 -3 -15 -12 -32 -19 -38 -7 -6 -11 -19 -8 -29 3 -12 -13 -31 -53 -65 -31
-25 -62 -45 -68 -43 -19 6 -18 49 2 76 10 15 23 38 27 51 4 14 22 52 40 84 32
59 33 60 79 62 26 1 50 4 53 8 9 9 13 8 13 -4z m288 -52 c-5 -16 -96 -67 -120
-67 -10 -1 -18 -5 -18 -10 0 -5 8 -11 18 -13 13 -3 9 -8 -16 -21 -37 -20 -66
-12 -37 9 20 15 22 12 -31 29 -14 4 -12 9 9 25 14 11 30 20 35 20 5 0 29 9 53
20 50 22 113 27 107 8z m1687 -239 c107 -28 119 -41 105 -122 -13 -85 -72
-194 -145 -273 -36 -38 -67 -76 -70 -85 -3 -9 -46 -49 -95 -88 -50 -40 -90
-76 -90 -81 0 -5 -16 -16 -35 -25 -19 -9 -45 -27 -58 -38 -13 -12 -31 -26 -40
-32 -8 -5 -51 -36 -96 -67 -44 -32 -85 -58 -92 -58 -6 0 -31 -13 -56 -30 -24
-16 -50 -30 -57 -30 -7 0 -33 -7 -59 -16 -42 -14 -53 -14 -109 -1 -35 9 -90
18 -123 22 -33 3 -76 11 -95 16 -19 5 -84 13 -145 17 l-110 7 3 30 c2 17 11
41 21 55 l19 25 183 -3 c166 -3 230 -8 407 -31 59 -8 91 2 52 17 -14 5 -52 12
-85 16 -33 4 -73 9 -88 12 l-29 6 24 25 c13 14 43 38 68 54 25 17 65 57 90 89
29 39 55 62 72 66 15 4 34 16 42 28 15 24 68 49 131 62 58 13 40 30 -27 26
-38 -2 -67 2 -85 12 -15 8 -64 27 -108 42 -142 47 -161 64 -100 90 35 14 51
42 18 29 -10 -3 -43 -15 -73 -25 -51 -17 -100 -36 -160 -61 -14 -6 -46 -22
-71 -35 -51 -26 -125 -32 -132 -11 -3 9 -7 9 -18 0 -17 -14 -69 -5 -69 12 0
12 56 36 125 54 17 4 49 20 73 34 24 16 56 27 77 27 19 0 60 11 91 25 31 14
95 36 143 49 124 34 141 42 141 66 0 11 7 20 15 20 8 0 15 -7 15 -16 0 -8 4
-12 10 -9 5 3 40 12 77 20 38 8 106 27 153 43 47 17 104 33 127 37 69 11 112
-28 61 -57 -42 -23 -133 -58 -152 -58 -37 0 -357 -83 -384 -100 -22 -14 82 -4
153 15 28 7 100 23 160 35 118 24 176 41 242 72 33 15 45 28 59 64 18 48 28
52 99 33z m-1765 -14 c0 -7 -57 -35 -70 -35 -23 0 -2 25 26 31 41 9 44 10 44
4z m-460 -12 c-1 -28 -31 -86 -54 -104 -45 -36 -46 -17 -3 57 26 45 57 70 57
47z m308 -25 c16 -16 15 -73 0 -85 -7 -5 -40 -15 -73 -21 -33 -6 -71 -14 -84
-18 -17 -5 -22 -3 -19 6 5 17 85 49 124 49 32 1 47 9 39 21 -3 4 -23 3 -44 -3
-53 -14 -61 -4 -26 33 30 31 63 38 83 18z m1372 -22 c0 -2 -7 -6 -15 -10 -8
-3 -15 -1 -15 4 0 6 7 10 15 10 8 0 15 -2 15 -4z m-1510 -15 c0 -5 -15 -21
-32 -35 -33 -25 -54 -45 -84 -77 -8 -9 -27 -19 -42 -22 -15 -3 -35 -9 -44 -12
-30 -12 -20 12 15 34 17 11 26 21 20 21 -19 0 -16 24 5 42 20 18 118 57 145
57 9 1 17 -3 17 -8z m575 -45 c29 -13 35 -20 35 -46 0 -18 -6 -33 -15 -36 -8
-4 -15 -15 -15 -26 0 -37 -39 -86 -78 -99 -49 -15 -68 -33 -25 -24 17 3 34 2
37 -4 9 -15 -4 -40 -24 -46 -11 -4 -17 -12 -13 -21 3 -9 -2 -14 -16 -14 -17 0
-207 -83 -273 -120 -21 -12 -100 -44 -188 -75 -68 -25 -110 -18 -48 8 22 9 39
26 48 47 7 17 25 36 39 42 59 22 190 56 245 63 33 4 65 9 73 12 24 9 14 23
-18 23 -56 0 -243 -41 -286 -63 -30 -15 -45 -19 -53 -11 -13 13 -3 44 15 44 7
0 15 9 18 20 3 11 11 20 19 19 10 0 10 -2 1 -6 -17 -6 -16 -23 1 -23 7 0 16 8
19 19 3 11 20 23 43 31 22 6 62 20 89 30 28 9 104 34 170 55 66 20 126 39 134
41 11 3 11 8 3 16 -8 8 -24 6 -59 -9 -26 -11 -84 -28 -128 -38 -117 -25 -255
-71 -317 -106 -23 -12 -23 3 0 31 21 26 57 40 200 80 101 28 120 37 152 71 8
9 45 27 81 39 55 19 66 26 62 41 -5 20 12 49 29 49 5 0 24 -7 43 -14z m-127
-38 c-7 -21 -61 -47 -109 -53 -24 -3 -60 -17 -79 -30 -33 -23 -111 -55 -133
-55 -22 0 25 36 75 58 198 87 254 105 246 80z m-698 -13 c0 -8 -11 -22 -26
-31 -20 -13 -28 -14 -37 -5 -9 10 -7 17 12 32 28 23 51 25 51 4z m-59 -97
c-31 -28 -55 -30 -45 -5 6 18 56 47 68 40 5 -4 -5 -19 -23 -35z m119 2 c-6
-11 -19 -24 -29 -30 -10 -5 -21 -20 -25 -34 -7 -28 -54 -62 -67 -49 -6 6 3 21
21 39 16 16 30 34 30 41 0 18 41 53 62 53 16 0 17 -3 8 -20z m1426 -46 c27 -9
54 -20 59 -25 6 -4 36 -17 68 -29 64 -24 73 -46 35 -87 -19 -20 -31 -23 -104
-23 -60 0 -85 4 -94 15 -7 8 -17 12 -22 9 -5 -3 -1 -12 9 -19 10 -7 15 -17 11
-21 -8 -7 -278 -80 -338 -91 -19 -3 -47 -13 -62 -21 -24 -14 -29 -14 -53 2
-42 27 -43 46 -4 78 59 51 112 86 175 119 l61 32 44 -21 c24 -11 62 -23 84
-26 l40 -6 -40 18 c-81 38 -81 62 -2 94 53 22 72 22 133 2z m-1566 -13 c0 -12
-62 -41 -74 -34 -13 8 32 43 55 43 10 0 19 -4 19 -9z m1127 -57 c24 -9 43 -20
43 -24 0 -16 -127 -108 -214 -154 -39 -21 -63 -26 -117 -26 -38 0 -71 5 -74
11 -10 14 33 59 73 75 38 17 43 29 8 20 -14 -3 -27 -2 -30 3 -7 11 67 61 91
61 10 0 38 11 63 25 54 28 99 31 157 9z m-1177 -9 c0 -3 -7 -17 -16 -30 -9
-14 -17 -39 -18 -57 -2 -36 -26 -52 -26 -18 0 17 -4 21 -20 17 -31 -8 -24 19
15 58 30 30 65 46 65 30z m72 -37 c-7 -7 -12 -8 -12 -2 0 14 12 26 19 19 2 -3
-1 -11 -7 -17z m279 -20 c-6 -17 -18 -24 -44 -26 -29 -3 -36 0 -31 11 6 16 41
35 66 36 14 1 16 -4 9 -21z m-281 -27 c0 -11 -25 -21 -51 -21 -21 0 -26 16 -6
23 21 9 57 7 57 -2z m780 3 c0 -11 -34 -33 -50 -33 -10 0 -8 6 9 19 23 20 41
26 41 14z m-522 -51 c-2 -10 -12 -19 -23 -21 -12 -2 -25 -13 -30 -25 -12 -27
-29 -25 -33 3 -4 25 -39 27 -45 3 -3 -11 -5 -8 -6 9 -1 35 21 47 87 48 46 0
53 -3 50 -17z m1399 1 c4 -11 -13 -35 -53 -75 -32 -32 -65 -59 -71 -59 -7 0
-13 -4 -13 -9 0 -5 -21 -22 -47 -37 -44 -26 -59 -29 -161 -32 -156 -6 -200 2
-208 35 -12 48 13 76 81 89 33 6 73 16 88 23 16 6 45 11 65 11 20 1 75 16 122
35 97 38 186 47 197 19z m-1817 -4 c0 -12 -28 -25 -36 -17 -9 9 6 27 22 27 8
0 14 -5 14 -10z m150 -51 c0 -42 -14 -52 -25 -18 -9 26 2 72 15 64 6 -3 10
-24 10 -46z m720 44 c-1 -21 -19 -36 -32 -26 -8 6 -21 7 -33 2 -28 -11 -35
-11 -35 1 0 6 10 15 23 20 27 11 77 13 77 3z m-820 -33 c0 -11 -4 -20 -10 -20
-5 0 -10 9 -10 20 0 11 5 20 10 20 6 0 10 -9 10 -20z m710 6 c0 -3 -4 -8 -10
-11 -5 -3 -10 -1 -10 4 0 6 5 11 10 11 6 0 10 -2 10 -4z m-810 -25 c0 -12 -20
-25 -27 -18 -7 7 6 27 18 27 5 0 9 -4 9 -9z m888 -3 c20 -20 14 -36 -20 -50
-18 -7 -64 -29 -103 -49 -91 -47 -179 -79 -213 -79 -23 1 -25 2 -9 11 9 5 17
20 17 32 0 25 35 45 170 96 47 18 92 37 100 41 22 13 44 12 58 -2z m329 -19
c34 -17 44 -27 49 -55 3 -18 4 -40 1 -49 -11 -27 -80 -46 -287 -80 -113 -19
-222 -40 -243 -46 -20 -7 -40 -10 -43 -6 -9 9 16 47 32 47 10 0 14 8 12 28 -3
23 1 27 22 28 14 1 30 2 35 3 10 1 37 23 112 92 28 26 39 29 100 30 37 0 84 7
103 14 48 19 57 18 107 -6z m-882 1 c3 -5 1 -10 -4 -10 -6 0 -11 5 -11 10 0 6
2 10 4 10 3 0 8 -4 11 -10z m50 -50 c-3 -5 -10 -10 -16 -10 -5 0 -9 5 -9 10 0
6 7 10 16 10 8 0 12 -4 9 -10z m-451 -26 c9 -22 8 -24 -9 -18 -8 4 -15 12 -15
20 0 19 16 18 24 -2z m226 7 c0 -6 -4 -13 -10 -16 -5 -3 -10 1 -10 9 0 9 5 16
10 16 6 0 10 -4 10 -9z m650 -36 c0 -8 -7 -15 -15 -15 -16 0 -20 12 -8 23 11
12 23 8 23 -8z m-835 -44 c-7 -23 -25 -29 -25 -8 0 14 21 39 28 33 2 -3 1 -14
-3 -25z m71 -18 c-2 -3 -9 -2 -15 2 -8 4 -7 13 1 28 l13 22 3 -23 c2 -13 1
-26 -2 -29z m56 7 c-6 -15 -11 -19 -16 -12 -10 17 4 56 15 45 6 -6 6 -19 1
-33z m-562 20 c0 -5 -4 -10 -10 -10 -5 0 -10 5 -10 10 0 6 5 10 10 10 6 0 10
-4 10 -10z m-455 -20 c3 -5 1 -10 -4 -10 -6 0 -11 5 -11 10 0 6 2 10 4 10 3 0
8 -4 11 -10z m1251 -9 c-10 -11 -39 -29 -66 -40 -27 -12 -52 -26 -55 -31 -13
-21 -67 -42 -78 -31 -16 16 -24 14 -46 -17 l-19 -28 39 -1 c22 -1 58 5 80 13
62 21 69 19 69 -21 0 -42 -22 -51 -108 -42 -48 5 -53 4 -33 -6 32 -16 29 -31
-9 -38 -17 -4 -40 -15 -50 -24 -22 -20 -39 -13 -22 8 7 8 9 17 5 20 -12 13
-54 7 -59 -8 -9 -23 -24 -18 -24 9 0 13 -6 26 -12 28 -9 3 -8 12 6 32 20 31
15 46 -9 26 -8 -7 -15 -8 -15 -3 0 6 -21 8 -47 6 -48 -4 -98 13 -94 32 3 13
49 9 78 -6 13 -7 26 -9 30 -6 8 9 -9 28 -28 30 -18 3 -39 16 -39 25 1 23 18
31 47 23 26 -8 32 -6 36 10 3 10 11 19 17 19 9 0 11 -12 6 -40 -5 -35 -4 -40
13 -40 11 0 23 -4 26 -10 11 -17 20 -11 32 20 6 17 18 30 27 30 9 0 16 5 16
10 0 6 4 10 9 10 6 0 7 -11 1 -27 -4 -16 -11 -41 -15 -58 l-7 -30 21 24 c12
14 24 35 27 48 5 17 13 23 35 23 16 0 37 4 47 9 28 15 166 70 176 71 5 0 1 -9
-8 -19z m148 -20 c-6 -6 -24 19 -24 34 1 6 7 1 15 -9 8 -11 12 -22 9 -25z
m-754 -33 c0 -15 -19 -8 -29 11 -14 25 0 37 16 15 7 -10 13 -21 13 -26z m125
32 c3 -5 -1 -10 -9 -10 -9 0 -16 5 -16 10 0 6 4 10 9 10 6 0 13 -4 16 -10z
m-444 -11 c17 -9 19 -17 14 -49 -5 -28 -2 -46 9 -62 20 -28 21 -44 1 -28 -13
10 -15 9 -15 -11 0 -13 6 -36 14 -50 18 -34 18 -106 0 -113 -8 -3 -14 -14 -14
-24 0 -10 -3 -22 -7 -25 -9 -10 -14 -50 -17 -129 -2 -38 -6 -71 -9 -74 -14
-15 -37 20 -37 56 0 24 -5 40 -15 44 -20 7 -19 33 2 44 15 9 15 15 5 50 -14
46 -16 141 -3 174 4 13 11 50 14 83 l6 60 -15 -35 c-9 -19 -19 -52 -22 -74 -4
-29 -7 -34 -14 -22 -5 8 -6 38 -2 66 6 42 13 56 40 78 19 15 34 33 34 40 0 15
6 15 31 1z m1167 -6 c-5 -25 -28 -28 -28 -4 0 12 6 21 16 21 9 0 14 -7 12 -17z
m599 -3 c2 -8 -5 -25 -15 -37 -15 -19 -35 -23 -165 -35 -140 -13 -149 -13
-164 4 -10 11 -13 22 -7 28 9 9 177 46 244 53 65 8 105 3 107 -13z m-833 -6
c28 -11 18 -21 -26 -28 -24 -4 -53 -9 -65 -13 -41 -10 -24 15 20 30 53 18 52
18 71 11z m-623 -44 c22 0 22 -1 6 -17 -14 -14 -20 -15 -41 -3 -28 14 -40 36
-29 53 4 6 13 2 24 -11 9 -12 28 -22 40 -22z m879 21 c0 -12 -20 -25 -27 -18
-7 7 6 27 18 27 5 0 9 -4 9 -9z m-1409 -17 c11 -14 9 -15 -16 -12 -16 1 -30 9
-33 16 -6 18 33 15 49 -4z m1295 -11 c-10 -10 -19 5 -10 18 6 11 8 11 12 0 2
-7 1 -15 -2 -18z m-1211 7 c3 -5 1 -10 -4 -10 -6 0 -11 5 -11 10 0 6 2 10 4
10 3 0 8 -4 11 -10z m192 -32 c-3 -7 -5 -2 -5 12 0 14 2 19 5 13 2 -7 2 -19 0
-25z m1313 1 c-9 -16 -14 -18 -26 -8 -21 17 -17 29 11 29 23 0 24 -2 15 -21z
m-1080 -19 c21 0 45 -3 54 -6 30 -11 16 -24 -26 -24 l-43 0 28 -15 c21 -10 34
-12 47 -5 12 6 21 6 25 1 9 -15 -12 -23 -53 -19 -32 3 -37 0 -40 -19 -2 -16 2
-23 12 -23 9 0 16 -7 16 -15 0 -8 -4 -15 -10 -15 -5 0 -13 -12 -16 -27 l-7
-27 -9 25 c-5 13 -7 40 -4 60 4 22 1 42 -8 54 -13 18 -14 18 -20 -3 -4 -12
-11 -22 -16 -22 -18 0 -20 40 -5 77 14 33 18 36 26 21 7 -12 22 -18 49 -18z
m656 4 c20 8 17 -8 -5 -28 -14 -12 -21 -14 -26 -6 -5 9 -10 9 -18 1 -6 -6 -17
-11 -25 -11 -8 0 0 15 20 35 25 28 34 32 36 20 2 -10 10 -14 18 -11z m-790
-11 c-10 -10 -19 5 -10 18 6 11 8 11 12 0 2 -7 1 -15 -2 -18z m922 5 c-3 -7
-13 -15 -24 -17 -16 -3 -17 -1 -5 13 16 19 34 21 29 4z m67 -9 c-8 -12 -35
-12 -35 0 0 11 22 20 33 14 4 -2 5 -9 2 -14z m689 6 c8 -22 -1 -23 -154 -28
-129 -4 -170 -10 -170 -27 0 -11 124 -20 135 -9 14 14 638 12 653 -3 37 -37
-14 -110 -108 -154 -70 -34 -81 -36 -108 -18 -22 14 -24 15 -19 1 4 -10 -6
-24 -28 -41 -52 -40 -74 -33 -33 11 18 20 19 23 5 23 -9 0 -17 -4 -17 -9 0 -5
-18 -27 -39 -49 -29 -30 -50 -42 -82 -46 -24 -4 -57 -10 -72 -13 -26 -4 -28
-2 -25 19 2 18 10 24 38 26 19 2 45 13 57 24 18 17 25 19 37 9 12 -10 21 -7
46 19 17 17 49 39 72 50 l41 18 -34 17 c-20 11 -77 22 -144 28 -111 10 -111
10 -156 -16 -49 -29 -78 -34 -96 -16 -8 8 -17 8 -31 0 -27 -14 -82 -14 -82 0
0 10 -27 9 -70 -2 -10 -3 -14 2 -12 14 3 15 0 17 -17 8 -25 -14 -31 -14 -31
-1 0 6 8 14 18 17 9 4 33 19 54 33 27 20 34 30 27 41 -16 26 -10 56 14 64 51
18 88 22 203 24 101 1 123 -2 128 -14z m296 -8 l65 -12 -80 -3 c-97 -4 -233
12 -249 28 -14 15 162 7 264 -13z m-920 3 c0 -5 -4 -10 -10 -10 -5 0 -10 5
-10 10 0 6 5 10 10 10 6 0 10 -4 10 -10z m250 -9 c0 -10 -42 -23 -49 -15 -7 6
20 24 37 24 6 0 12 -4 12 -9z m-999 -21 c10 -6 19 -14 19 -19 0 -13 -73 3 -78
17 -5 15 32 16 59 2z m787 -2 c-2 -6 -10 -14 -16 -16 -7 -2 -10 2 -6 12 7 18
28 22 22 4z m112 8 c0 -3 -4 -8 -10 -11 -5 -3 -10 -1 -10 4 0 6 5 11 10 11 6
0 10 -2 10 -4z m-1520 -56 c0 -12 7 -32 16 -46 13 -19 14 -28 5 -37 -9 -9 -18
-5 -38 17 -22 24 -24 32 -15 47 8 12 8 19 2 19 -5 0 -10 5 -10 10 0 6 9 10 20
10 13 0 20 -7 20 -20z m663 5 c4 -8 2 -17 -3 -20 -6 -4 -10 3 -10 14 0 25 6
27 13 6z m910 -16 c-18 -12 -33 -25 -33 -30 0 -5 -12 -9 -27 -9 -31 0 -25 8
27 38 46 27 74 28 33 1z m-443 -9 c0 -16 -79 -83 -120 -101 l-41 -18 -11 24
c-15 32 -32 32 -56 -2 -30 -41 -39 -19 -13 32 19 38 27 45 51 45 16 0 36 3 45
6 13 5 15 2 9 -20 -5 -20 -2 -26 10 -26 8 0 20 9 26 20 6 11 27 28 48 39 36
19 52 19 52 1z m70 11 c0 -5 -7 -14 -15 -21 -21 -18 -19 -50 4 -50 10 0 39 16
64 35 25 19 49 35 53 35 9 0 -56 -61 -104 -98 -22 -17 -29 -28 -21 -32 8 -5 5
-10 -10 -15 -31 -9 -44 3 -37 36 6 34 -4 37 -29 9 -10 -11 -28 -20 -39 -20
-19 1 -19 3 7 23 16 12 47 41 70 64 41 42 57 52 57 34z m270 -1 c11 6 20 7 20
2 0 -11 -50 -57 -78 -71 -19 -10 -23 -9 -29 5 -4 10 0 22 10 29 22 16 22 26 0
19 -16 -5 -16 -4 1 10 14 11 24 13 37 5 13 -6 25 -6 39 1z m-970 -10 c0 -5 -2
-10 -4 -10 -3 0 -8 5 -11 10 -3 6 -1 10 4 10 6 0 11 -4 11 -10z m738 -7 c-2
-10 -14 -19 -26 -21 -21 -3 -22 -1 -12 17 13 26 43 28 38 4z m-1348 -7 c0 -3
-4 -8 -10 -11 -5 -3 -10 -1 -10 4 0 6 5 11 10 11 6 0 10 -2 10 -4z m725 -5
c-15 -14 -115 -25 -115 -13 0 12 28 19 85 21 23 0 35 -3 30 -8z m252 -36 c-3
-19 -13 -45 -22 -57 -17 -22 -17 -22 -11 25 6 54 12 67 28 67 7 0 8 -13 5 -35z
m-224 4 l21 -12 -23 -8 c-25 -10 -20 -29 8 -29 28 0 45 -25 26 -40 -11 -10
-20 -8 -44 9 -33 24 -47 26 -54 9 -3 -9 -15 -3 -36 16 -17 16 -28 32 -25 35 5
5 73 26 97 30 5 0 18 -4 30 -10z m77 -4 c7 -8 19 -15 26 -15 22 0 16 -25 -16
-73 -16 -25 -30 -52 -30 -61 0 -9 -5 -16 -10 -16 -23 0 -21 32 4 75 27 46 27
65 0 65 -14 0 -19 21 -7 33 10 11 19 8 33 -8z m-422 -17 c2 -8 -4 -15 -13 -15
-8 0 -15 7 -15 14 0 8 -4 11 -10 8 -5 -3 -10 -1 -10 4 0 16 45 6 48 -11z
m-375 -3 c-4 -15 -36 -12 -41 3 -3 9 3 13 19 10 13 -1 23 -7 22 -13z m1501
-11 c24 -9 19 -24 -8 -24 -33 0 -57 10 -50 21 6 10 35 12 58 3z m-1144 -24 c0
-5 -2 -10 -4 -10 -3 0 -8 5 -11 10 -3 6 -1 10 4 10 6 0 11 -4 11 -10z m1065 0
c12 -19 -5 -48 -36 -60 -25 -11 -32 -10 -47 3 -9 8 -28 17 -41 19 -21 3 -19 6
20 25 47 24 94 30 104 13z m215 6 c0 -2 -7 -7 -16 -10 -8 -3 -12 -2 -9 4 6 10
25 14 25 6z m88 -8 c20 -20 14 -28 -21 -28 -40 0 -51 8 -36 27 14 16 41 17 57
1z m492 5 c0 -5 -16 -18 -35 -30 -25 -17 -33 -19 -28 -8 3 9 17 22 32 30 31
17 31 17 31 8z m-1682 -25 c-4 -27 -28 -36 -28 -10 0 20 8 32 22 32 5 0 8 -10
6 -22z m1020 5 c2 -9 -7 -13 -28 -13 -28 0 -31 2 -20 15 15 18 41 16 48 -2z
m309 -13 c25 0 25 -1 9 -19 -16 -18 -19 -42 -14 -101 2 -16 -3 -26 -13 -28
-12 -2 -18 7 -23 33 -4 20 -13 38 -21 41 -22 9 -27 36 -8 50 17 13 16 14 -7
12 -14 -2 -26 1 -28 7 -1 5 12 11 30 13 18 2 35 6 38 8 2 3 6 0 8 -5 2 -6 15
-11 29 -11z m258 1 c-3 -6 -11 -11 -17 -11 -6 0 -6 6 2 15 14 17 26 13 15 -4z
m-1159 -17 c16 -13 16 -15 2 -10 -10 3 -20 0 -24 -5 -4 -7 -10 -7 -16 -1 -10
10 -3 32 11 32 4 0 16 -7 27 -16z m528 0 c11 -30 -13 -44 -43 -25 -12 8 -12
12 -2 25 17 20 37 20 45 0z m87 -7 c-13 -13 -26 -3 -16 12 3 6 11 8 17 5 6 -4
6 -10 -1 -17z m-843 -25 c2 -7 -2 -12 -10 -12 -14 1 -48 24 -48 33 0 10 54 -9
58 -21z m972 19 c0 -5 -7 -11 -15 -15 -8 -3 -15 -11 -15 -17 0 -8 7 -6 18 4
10 10 23 17 28 17 14 -1 54 -37 54 -49 0 -6 5 -11 11 -11 6 0 9 -10 7 -22 -4
-31 -48 -39 -48 -9 0 24 -17 26 -44 6 -17 -13 -22 -13 -38 2 -10 9 -18 22 -18
30 0 7 -8 13 -17 13 -22 1 -53 23 -53 39 0 6 16 11 36 11 19 0 33 -4 30 -9 -4
-5 3 -7 14 -4 11 3 23 9 26 14 7 12 24 12 24 0z m200 -1 c0 -5 -5 -10 -11 -10
-5 0 -7 5 -4 10 3 6 8 10 11 10 2 0 4 -4 4 -10z m-1845 -21 c0 -8 -10 -15 -23
-17 -21 -3 -22 -1 -12 18 12 23 35 22 35 -1z m45 -1 c0 -16 -3 -19 -11 -11 -6
6 -8 16 -5 22 11 17 16 13 16 -11z m930 -9 c0 -10 -4 -19 -10 -19 -5 0 -10 12
-10 26 0 14 4 23 10 19 6 -3 10 -15 10 -26z m1313 17 c6 -16 -11 -36 -30 -36
-13 0 -18 32 -6 43 11 12 31 8 36 -7z m-1834 -27 c6 -18 11 -50 11 -73 0 -23
5 -61 11 -84 10 -46 3 -116 -11 -107 -5 3 -11 59 -15 125 -6 92 -11 122 -23
129 -9 5 -13 15 -9 25 10 25 24 19 36 -15z m799 25 c39 -11 25 -27 -19 -21
-52 7 -77 27 -33 27 16 0 39 -3 52 -6z m216 -8 c-3 -9 5 -15 25 -19 23 -5 31
-12 31 -28 0 -17 -4 -20 -22 -15 -13 3 -31 6 -42 6 -13 0 -17 5 -13 19 3 14 1
18 -9 14 -14 -5 -20 18 -7 30 12 13 43 7 37 -7z m-1535 -25 c-15 -5 -22 6 -14
19 6 9 10 9 16 -1 5 -8 4 -15 -2 -18z m826 19 c3 -5 1 -10 -4 -10 -6 0 -11 5
-11 10 0 6 2 10 4 10 3 0 8 -4 11 -10z m1135 -10 c14 9 47 -16 36 -28 -4 -3
-11 -1 -15 6 -6 9 -12 8 -24 -6 -12 -13 -26 -17 -42 -14 -29 5 -32 18 -8 44
15 17 19 17 28 4 7 -9 16 -11 25 -6z m-785 -18 c-8 -8 -25 10 -19 20 4 6 9 5
15 -3 4 -7 6 -15 4 -17z m241 -8 c-5 -14 -37 -221 -57 -367 -12 -90 -26 -141
-55 -200 -16 -31 -22 -53 -16 -63 5 -9 4 -30 -2 -50 -8 -25 -17 -34 -33 -34
-13 0 -23 3 -23 8 8 111 79 435 109 490 7 13 9 36 6 56 -4 21 -2 36 5 41 7 4
9 18 4 37 -5 27 -4 30 11 24 16 -6 17 -2 11 34 -3 23 -4 45 -1 51 10 14 47
-10 41 -27z m-1386 -12 c0 -13 -12 -22 -22 -16 -10 6 -1 24 13 24 5 0 9 -4 9
-8z m1144 -23 c19 18 24 19 29 7 8 -20 -17 -38 -45 -34 -16 2 -24 10 -25 28
l-3 25 10 -24 10 -24 24 22z m454 4 c-5 -25 -28 -28 -28 -4 0 12 6 21 16 21 9
0 14 -7 12 -17z m-828 -13 c0 -5 -4 -10 -10 -10 -5 0 -10 5 -10 10 0 6 5 10
10 10 6 0 10 -4 10 -10z m1307 -2 c0 -7 2 -19 4 -27 6 -19 -20 -26 -27 -7 -7
18 1 46 14 46 5 0 9 -6 9 -12z m193 2 c0 -5 -5 -10 -11 -10 -5 0 -7 5 -4 10 3
6 8 10 11 10 2 0 4 -4 4 -10z m-2370 -10 c0 -5 -5 -10 -11 -10 -5 0 -7 5 -4
10 3 6 8 10 11 10 2 0 4 -4 4 -10z m350 -10 c0 -11 -4 -20 -10 -20 -5 0 -10 9
-10 20 0 11 5 20 10 20 6 0 10 -9 10 -20z m200 -22 c0 -25 -3 -29 -10 -18 -13
20 -13 50 0 50 6 0 10 -15 10 -32z m1570 17 c0 -8 -2 -15 -4 -15 -2 0 -6 7
-10 15 -3 8 -1 15 4 15 6 0 10 -7 10 -15z m-550 -15 c17 0 17 -2 3 -31 l-15
-30 -14 27 c-8 15 -12 35 -8 43 4 12 8 12 11 4 3 -7 13 -13 23 -13z m325 10
c-3 -5 -10 -10 -16 -10 -5 0 -9 5 -9 10 0 6 7 10 16 10 8 0 12 -4 9 -10z m-91
-26 c14 -37 7 -54 -23 -54 -34 0 -45 -19 -30 -56 11 -30 3 -46 -12 -24 -25 40
-23 63 10 91 26 21 29 28 17 32 -24 10 -19 27 8 27 13 0 27 -7 30 -16z m-1679
-4 c4 -6 15 -8 26 -5 10 4 19 2 19 -3 0 -16 -50 -24 -66 -11 -8 6 -11 15 -8
20 7 12 21 11 29 -1z m565 -6 c0 -8 -4 -12 -10 -9 -5 3 -10 10 -10 16 0 5 5 9
10 9 6 0 10 -7 10 -16z m298 -6 c-2 -13 -7 -23 -13 -23 -5 0 -11 10 -13 23 -2
15 2 22 13 22 11 0 15 -7 13 -22z m70 -14 c2 -28 2 -28 -13 -10 -18 24 -20 49
-2 44 6 -3 13 -18 15 -34z m612 27 c0 -5 -7 -11 -15 -15 -15 -5 -20 5 -8 17 9
10 23 9 23 -2z m438 -3 c7 -7 12 -21 12 -32 0 -20 -2 -19 -20 4 -11 14 -20 28
-20 33 0 11 15 8 28 -5z m317 -25 c-24 -38 -57 -73 -68 -73 -5 0 -29 -22 -54
-50 -24 -27 -63 -58 -86 -69 -23 -10 -67 -35 -97 -55 -65 -43 -80 -45 -80 -10
0 27 51 84 76 84 27 0 120 48 153 79 19 17 41 31 50 29 9 -1 36 19 60 45 48
52 73 63 46 20z m-210 7 c4 -6 -5 -10 -19 -10 -15 0 -26 -6 -26 -13 0 -7 -6
-21 -13 -31 -12 -16 -13 -14 -9 17 4 34 13 42 49 46 6 0 15 -3 18 -9z m-1945
-15 c0 -8 -4 -15 -10 -15 -5 0 -10 7 -10 15 0 8 5 15 10 15 6 0 10 -7 10 -15z
m1797 -21 c-9 -10 -38 16 -31 28 4 6 13 4 22 -6 9 -8 13 -19 9 -22z m-1052
-14 c3 -5 -1 -10 -9 -10 -9 0 -16 5 -16 10 0 6 4 10 9 10 6 0 13 -4 16 -10z
m-437 -85 c12 -39 22 -79 22 -90 0 -11 7 -29 15 -39 10 -13 13 -32 9 -58 -5
-29 -3 -39 10 -44 20 -8 21 -34 1 -34 -21 0 -55 76 -55 123 0 22 -6 62 -14 90
-19 70 -29 145 -18 132 5 -5 19 -42 30 -80z m1430 43 c3 -22 0 -26 -16 -21
-23 5 -24 2 -47 -140 -7 -49 -20 -99 -29 -111 -8 -13 -18 -40 -21 -60 -4 -20
-13 -42 -19 -49 -19 -19 -76 -167 -76 -197 0 -15 -7 -33 -15 -40 -8 -7 -22
-38 -31 -68 -14 -46 -14 -57 -3 -61 24 -8 59 -50 59 -71 0 -20 -1 -21 -25 -3
-13 10 -25 26 -25 36 0 9 -4 17 -9 17 -12 0 -22 -44 -11 -48 6 -2 10 -13 10
-24 0 -17 -3 -18 -15 -8 -13 11 -15 8 -15 -19 0 -34 -11 -39 -30 -16 -24 29 6
178 82 400 17 50 37 110 44 135 20 67 73 228 96 290 25 67 36 80 48 60 8 -12
10 -10 10 8 0 34 34 25 38 -10z m65 -46 c-7 -44 -8 -46 -22 -37 -7 3 -10 30
-9 62 2 53 3 54 20 34 12 -16 15 -32 11 -59z m-1914 37 c11 -32 5 -79 -10 -79
-17 0 -30 41 -23 75 8 43 19 45 33 4z m720 -21 c-1 -47 -2 -50 -10 -23 -7 26
-3 75 7 75 2 0 4 -24 3 -52z m911 32 c0 -5 -4 -10 -10 -10 -5 0 -10 5 -10 10
0 6 5 10 10 10 6 0 10 -4 10 -10z m660 0 c0 -5 -5 -10 -11 -10 -5 0 -7 5 -4
10 3 6 8 10 11 10 2 0 4 -4 4 -10z m-1770 -10 c0 -5 -7 -10 -16 -10 -8 0 -12
5 -9 10 3 6 10 10 16 10 5 0 9 -4 9 -10z m-477 -46 c-13 -38 -32 -43 -26 -7 8
49 13 57 24 46 8 -8 8 -21 2 -39z m987 37 c0 -14 -18 -23 -30 -16 -6 4 -8 11
-5 16 8 12 35 12 35 0z m970 -6 c0 -8 -4 -15 -10 -15 -5 0 -7 7 -4 15 4 8 8
15 10 15 2 0 4 -7 4 -15z m-1020 -14 c0 -5 -7 -12 -16 -15 -22 -9 -24 -8 -24
9 0 8 9 15 20 15 11 0 20 -4 20 -9z m1275 -1 c3 -5 2 -10 -4 -10 -5 0 -13 5
-16 10 -3 6 -2 10 4 10 5 0 13 -4 16 -10z m113 -15 c-6 -13 -15 -22 -19 -19
-11 6 8 44 21 44 6 0 5 -10 -2 -25z m-2192 -55 c-20 -22 -36 -46 -36 -53 -1
-7 -6 -5 -14 6 -8 10 -20 15 -29 11 -9 -3 -24 3 -36 15 -18 18 -19 22 -6 27 8
4 25 4 37 1 25 -7 77 13 98 38 9 11 16 13 18 6 2 -6 -12 -29 -32 -51z m623 53
c0 -5 -4 -17 -9 -28 -8 -18 -9 -17 -9 8 -1 15 4 27 9 27 6 0 10 -3 9 -7z m861
-22 c14 -27 -9 -40 -27 -16 -17 24 -17 35 2 35 8 0 19 -9 25 -19z m-595 -21
c-3 -5 -10 -10 -16 -10 -5 0 -9 5 -9 10 0 6 7 10 16 10 8 0 12 -4 9 -10z
m1130 0 c3 -5 1 -10 -4 -10 -6 0 -11 5 -11 10 0 6 2 10 4 10 3 0 8 -4 11 -10z
m-2151 -46 c3 -9 6 -23 6 -31 0 -13 -3 -13 -15 -3 -16 13 -21 50 -6 50 5 0 12
-7 15 -16z m626 12 c0 -3 -4 -8 -10 -11 -5 -3 -10 -1 -10 4 0 6 5 11 10 11 6
0 10 -2 10 -4z m186 -23 c-10 -10 -19 5 -10 18 6 11 8 11 12 0 2 -7 1 -15 -2
-18z m174 7 c0 -9 -61 -23 -68 -16 -2 3 -2 11 1 19 5 14 67 12 67 -3z m1149
-17 c16 -34 4 -44 -19 -16 -15 19 -19 20 -24 7 -5 -13 -9 -14 -21 -4 -21 18
-20 12 27 -102 42 -102 54 -122 70 -111 13 8 38 -17 38 -38 0 -23 -15 -23 -55
0 -21 12 -36 34 -50 73 -20 55 -35 82 -35 61 0 -6 7 -24 15 -39 8 -16 15 -40
15 -53 0 -19 -3 -21 -14 -11 -8 6 -20 27 -27 47 -15 48 -39 91 -39 73 0 -8 13
-43 29 -77 28 -59 43 -72 111 -103 25 -11 25 -12 5 -26 -19 -14 -19 -16 -2
-28 9 -7 17 -24 17 -37 0 -48 -12 -53 -124 -59 -105 -5 -123 -10 -111 -29 12
-21 75 -14 260 29 28 7 62 12 77 11 18 0 29 6 33 19 4 12 15 20 29 20 13 0 29
7 36 15 19 23 30 18 42 -16 8 -23 15 -29 29 -26 27 7 84 -22 70 -36 -7 -7 -15
-6 -26 3 -13 11 -19 10 -35 -5 -20 -18 -21 -18 -50 3 -38 28 -48 28 -56 -3 -4
-17 -10 -23 -18 -17 -6 5 -21 12 -33 15 -20 4 -23 1 -23 -24 0 -19 -5 -29 -15
-29 -13 0 -14 -4 -5 -20 7 -14 8 -26 0 -39 -5 -11 -10 -31 -10 -45 0 -14 -4
-26 -10 -26 -8 0 -16 23 -35 102 -8 32 -49 72 -67 66 -7 -3 -21 -36 -31 -74
-25 -92 -74 -190 -108 -214 -29 -21 -74 -98 -64 -109 4 -3 12 2 19 12 18 23
23 22 32 -10 l7 -28 7 30 7 30 16 -37 c18 -39 37 -58 37 -36 0 8 -6 22 -14 33
-25 37 -29 65 -10 86 39 43 125 9 109 -43 -12 -35 -55 -115 -70 -128 -10 -8
-19 -3 -39 20 -14 18 -26 25 -26 18 0 -7 14 -29 32 -48 26 -29 29 -36 14 -38
-9 -2 -24 2 -33 10 -14 11 -15 10 -9 -10 4 -13 3 -22 -3 -22 -15 0 -24 20 -23
51 0 19 -4 29 -13 29 -8 0 -12 6 -10 13 3 6 -6 17 -20 24 -14 6 -25 9 -25 6 0
-2 16 -32 36 -65 19 -34 34 -70 34 -82 -2 -27 10 -66 21 -66 4 0 19 10 32 22
38 35 98 69 116 66 22 -5 20 -66 -4 -101 -17 -26 -19 -27 -41 -12 -21 14 -24
13 -34 -4 -8 -16 -6 -23 12 -35 l22 -15 -30 -26 c-45 -39 -66 -34 -108 28 -16
24 -25 49 -24 72 1 19 -6 43 -14 52 -9 10 -25 40 -37 68 -20 44 -20 51 -6 61
19 14 19 24 1 24 -24 0 -30 21 -7 27 26 7 26 15 2 37 -37 34 -54 108 -18 77
32 -26 42 24 39 188 -2 81 -3 84 -36 115 -18 17 -39 42 -46 55 -11 22 -13 23
-22 7 -6 -10 -8 -26 -5 -36 3 -11 -1 -24 -9 -31 -18 -15 -18 -29 1 -29 18 0
19 -22 4 -106 -10 -58 -9 -66 10 -97 25 -41 26 -47 6 -47 -8 0 -15 7 -15 15 0
17 -27 20 -32 4 -3 -9 -20 -9 -67 -1 -35 6 -66 13 -68 15 -7 7 34 92 52 107 9
8 21 26 27 40 9 24 10 24 23 7 13 -18 13 -18 19 1 4 10 9 65 11 123 4 72 10
108 20 118 13 13 15 11 21 -17 4 -17 14 -34 23 -37 10 -3 22 -17 29 -33 11
-26 11 -26 7 9 -6 44 3 54 28 32 19 -18 20 -17 13 12 -15 60 -18 107 -8 117 7
7 12 4 16 -10 8 -25 36 -38 36 -16 0 8 -10 28 -21 44 -22 29 -25 52 -21 148 2
46 4 52 25 53 12 0 16 3 10 6 -18 7 -16 23 2 23 8 0 15 -4 15 -9 0 -23 36 -20
74 7 67 48 85 48 105 5z m41 15 c0 -16 -3 -19 -11 -11 -6 6 -8 16 -5 22 11 17
16 13 16 -11z m-1085 -5 c-3 -10 -9 -30 -12 -45 -5 -26 -33 -61 -33 -41 0 23
33 103 42 103 6 0 7 -8 3 -17z m455 3 c0 -18 -27 -29 -36 -14 -4 5 0 14 7 19
20 13 29 11 29 -5z m880 -6 c0 -5 -7 -10 -15 -10 -8 0 -15 5 -15 10 0 6 7 10
15 10 8 0 15 -4 15 -10z m-140 -21 c0 -6 -4 -7 -10 -4 -5 3 -10 11 -10 16 0 6
5 7 10 4 6 -3 10 -11 10 -16z m-790 -9 c8 -16 4 -26 -22 -56 -51 -58 -108 -96
-124 -83 -21 17 -17 25 22 44 44 21 74 50 74 71 0 14 -2 14 -16 3 -14 -12 -16
-11 -12 6 3 15 11 19 32 17 17 -2 25 1 21 7 -3 6 -2 11 4 11 6 0 15 -9 21 -20z
m699 -4 c9 -11 9 -16 0 -21 -10 -7 -28 10 -29 28 0 12 17 8 29 -7z m-1209 -5
c0 -5 -7 -14 -15 -21 -12 -10 -15 -10 -15 2 0 8 3 18 7 21 9 10 23 9 23 -2z
m643 -23 c-3 -18 -21 -71 -40 -118 -19 -47 -38 -101 -42 -120 -4 -23 -13 -36
-26 -39 -11 -2 -25 -11 -32 -20 -10 -13 -12 -7 -13 41 0 45 5 62 23 85 13 15
29 43 36 61 8 17 16 32 20 32 3 0 19 25 36 55 33 62 47 70 38 23z m-723 2 c0
-11 -7 -20 -15 -20 -13 0 -14 4 -5 20 6 11 13 20 15 20 3 0 5 -9 5 -20z m1335
10 c3 -5 -1 -10 -10 -10 -9 0 -13 5 -10 10 3 6 8 10 10 10 2 0 7 -4 10 -10z
m-117 -46 l2 -29 -20 24 c-11 12 -17 27 -14 33 11 17 29 2 32 -28z m-1565 -18
c59 -64 67 -88 67 -203 0 -59 6 -130 14 -162 8 -31 20 -93 25 -139 9 -72 8
-87 -6 -108 -9 -14 -19 -21 -23 -17 -5 4 -15 60 -24 123 -9 63 -26 141 -38
172 -14 39 -19 71 -15 98 3 26 -3 70 -19 127 -23 84 -31 143 -18 143 3 0 20
-15 37 -34z m1307 8 c0 -16 -16 -19 -25 -4 -8 13 4 32 16 25 5 -4 9 -13 9 -21z
m316 9 c3 -10 10 -26 15 -35 7 -14 5 -18 -6 -18 -9 0 -18 8 -22 18 -3 9 -13
25 -21 35 -14 15 -13 17 7 17 12 0 24 -8 27 -17z m84 -3 c0 -5 -4 -10 -10 -10
-5 0 -10 5 -10 10 0 6 5 10 10 10 6 0 10 -4 10 -10z m350 -39 c0 -6 -4 -13
-10 -16 -5 -3 -10 1 -10 9 0 9 5 16 10 16 6 0 10 -4 10 -9z m-1310 -21 c0 -11
-4 -20 -10 -20 -5 0 -10 9 -10 20 0 11 5 20 10 20 6 0 10 -9 10 -20z m558 -40
c-4 -67 -22 -69 -26 -2 -2 42 0 52 13 52 13 0 15 -10 13 -50z m-1198 31 c0 -5
-7 -11 -15 -15 -15 -5 -20 5 -8 17 9 10 23 9 23 -2z m1924 0 c3 -5 -1 -22 -9
-37 -18 -35 -19 -61 -3 -66 13 -5 4 -38 -11 -38 -6 0 -13 16 -17 35 -5 28 -10
34 -24 30 -33 -10 -30 12 6 49 36 37 49 43 58 27z m-424 -16 c0 -9 -6 -12 -15
-9 -8 4 -15 10 -15 15 0 5 7 9 15 9 8 0 15 -7 15 -15z m57 -11 c9 -23 -11 -38
-26 -20 -13 16 -7 36 10 36 5 0 12 -7 16 -16z m-1350 -11 c-9 -9 -19 -14 -23
-11 -10 10 6 28 24 28 15 0 15 -1 -1 -17z m1403 -27 c-15 -15 -33 4 -19 20 10
12 14 12 20 2 5 -7 4 -17 -1 -22z m-1190 10 c0 -7 -3 -28 -6 -45 -5 -24 -12
-31 -30 -31 -30 0 -32 27 -3 64 22 28 39 34 39 12z m-410 -25 c0 -12 -20 -25
-27 -18 -7 7 6 27 18 27 5 0 9 -4 9 -9z m1618 -30 c4 -28 -13 -20 -21 9 -3 14
-1 20 6 17 7 -2 14 -14 15 -26z m196 14 c4 -10 -1 -15 -14 -15 -11 0 -20 7
-20 15 0 8 6 15 14 15 8 0 16 -7 20 -15z m-1794 -90 c-6 -31 -16 -53 -21 -49
-12 7 -2 89 14 119 10 18 11 18 15 3 2 -10 -2 -43 -8 -73z m-220 39 c0 -8 -7
-14 -15 -14 -10 0 -15 10 -15 26 0 22 2 25 15 14 8 -7 15 -19 15 -26z m860 5
c0 -18 -11 -45 -29 -67 -16 -20 -34 -55 -41 -77 -28 -91 -42 -46 -16 50 24 86
44 125 66 125 16 0 20 -7 20 -31z m515 -19 c-4 -11 -11 -20 -16 -20 -10 0 -12
53 -2 64 11 11 25 -23 18 -44z m-839 2 c-10 -10 -29 15 -21 28 6 9 10 8 17 -4
6 -10 7 -20 4 -24z m1414 28 c0 -5 -7 -10 -15 -10 -8 0 -15 5 -15 10 0 6 7 10
15 10 8 0 15 -4 15 -10z m138 -46 c2 -1 -3 -11 -10 -23 -10 -17 -10 -25 0 -41
16 -26 16 -53 0 -48 -7 3 -18 27 -24 54 -9 42 -14 49 -32 47 -28 -3 -28 12 0
31 20 14 24 14 42 -2 12 -9 22 -18 24 -18z m-183 16 c3 -6 -1 -13 -10 -16 -19
-8 -30 0 -20 15 8 14 22 14 30 1z m-67 -27 c-2 -10 -10 -18 -18 -18 -8 0 -16
8 -18 18 -2 12 3 17 18 17 15 0 20 -5 18 -17z m-1789 -47 c14 -58 14 -59 -9
-46 -15 8 -20 21 -20 50 0 53 15 51 29 -4z m1736 19 c0 -12 -9 -19 -27 -21
-32 -3 -35 7 -12 31 20 19 39 15 39 -10z m-535 -7 c0 -7 -7 -22 -15 -32 -8
-11 -15 -28 -15 -39 0 -10 -4 -15 -10 -12 -14 9 -13 68 2 83 16 16 38 15 38 0z
m720 2 c0 -5 -4 -10 -10 -10 -5 0 -10 5 -10 10 0 6 5 10 10 10 6 0 10 -4 10
-10z m-1307 -52 c-8 -24 -18 -88 -23 -143 -13 -142 -25 -172 -50 -126 -14 27
-13 64 7 151 9 41 17 89 17 105 2 40 13 55 40 55 23 0 23 -1 9 -42z m499 17
c0 -5 -5 -11 -11 -13 -6 -2 -11 4 -11 13 0 9 5 15 11 13 6 -2 11 -8 11 -13z
m770 -79 c15 4 18 0 18 -28 0 -24 -3 -29 -9 -19 -8 12 -12 12 -25 2 -13 -11
-16 -11 -16 2 0 8 -2 30 -5 48 -5 31 -4 32 6 11 9 -15 18 -21 31 -16z m-1122
7 c0 -5 -7 -17 -15 -27 -15 -20 -20 -10 -9 18 6 16 24 22 24 9z m585 -66 c3
-23 9 -57 12 -76 4 -24 2 -32 -6 -27 -6 4 -12 19 -12 34 -1 15 -5 0 -10 -32
-10 -66 -14 -75 -30 -59 -7 7 -9 22 -4 40 4 15 7 42 6 59 -1 18 2 35 7 38 6 3
8 25 4 49 -5 37 -4 41 11 29 8 -7 18 -32 22 -55z m765 23 c0 -28 -19 -25 -30
6 -14 35 -13 36 10 24 11 -6 20 -20 20 -30z m-2073 8 c-3 -8 -6 -5 -6 6 -1 11
2 17 5 13 3 -3 4 -12 1 -19z m1791 -17 c2 -7 -3 -11 -14 -9 -13 2 -18 -2 -16
-14 2 -10 -2 -18 -8 -18 -5 0 -10 16 -10 35 0 31 2 34 22 26 12 -4 24 -13 26
-20z m-178 -31 c0 -11 -4 -20 -10 -20 -5 0 -10 9 -10 20 0 11 5 20 10 20 6 0
10 -9 10 -20z m534 2 c9 -15 -66 -61 -169 -102 -160 -64 -445 -109 -445 -70 0
17 24 23 73 21 28 -1 64 4 81 11 l31 13 -35 5 c-25 4 -36 11 -39 25 -3 19 -3
19 16 2 23 -20 38 -9 45 29 2 18 7 20 26 13 16 -6 22 -16 22 -39 0 -35 4 -36
61 -10 24 11 57 20 73 20 35 0 144 38 167 57 9 8 30 18 45 23 39 11 42 11 48
2z m-359 -52 c3 -5 1 -10 -4 -10 -6 0 -11 5 -11 10 0 6 2 10 4 10 3 0 8 -4 11
-10z m-179 -45 c-3 -32 -11 -39 -32 -31 -15 6 -16 8 0 24 9 10 16 24 16 31 0
7 4 10 9 6 5 -3 8 -17 7 -30z m428 -66 c4 -28 5 -54 2 -57 -8 -8 -26 46 -26
79 0 48 17 33 24 -22z m-39 -9 c0 -29 -4 -44 -12 -43 -8 2 -10 -8 -6 -31 4
-26 1 -35 -13 -40 -10 -4 -21 -1 -26 6 -11 19 -10 48 3 48 8 0 10 12 6 36 -7
40 10 76 33 72 11 -2 15 -16 15 -48z m-1044 -141 c-2 -56 1 -71 16 -86 20 -20
37 -52 35 -65 -1 -3 18 -29 43 -55 24 -27 47 -62 50 -76 4 -15 12 -31 19 -35
30 -20 46 -54 56 -122 9 -61 8 -77 -5 -96 -9 -13 -19 -24 -23 -24 -13 0 -54
42 -47 48 3 4 10 0 15 -7 5 -8 15 -11 25 -7 16 6 16 8 3 24 -9 9 -18 24 -21
32 -4 10 -6 7 -6 -7 -1 -13 -5 -23 -10 -23 -9 0 -20 45 -22 94 -1 23 -3 25 -6
9 -9 -49 -22 -20 -18 40 l4 62 -12 -58 c-14 -68 -26 -65 -29 7 l-1 51 -6 -45
c-7 -55 -17 -37 -31 58 -10 71 -15 81 -32 64 -9 -9 -16 -2 -30 29 -14 33 -18
67 -18 168 0 70 3 131 7 135 4 4 16 -5 27 -20 17 -23 20 -40 17 -95z m152 107
c26 -20 21 -26 -24 -26 -42 0 -79 14 -79 30 0 15 82 11 103 -4z m-565 -44 c2
-14 -2 -22 -12 -22 -19 0 -29 17 -22 36 8 22 30 12 34 -14z m652 -22 c0 -43
-15 -61 -23 -29 -4 16 -11 19 -26 14 -11 -3 -28 -2 -37 3 -14 8 -10 14 27 35
23 14 46 24 51 21 4 -3 8 -23 8 -44z m250 30 c0 -11 -7 -20 -15 -20 -15 0 -21
21 -8 33 12 13 23 7 23 -13z m-140 -45 c10 -12 10 -15 -3 -15 -8 0 -17 7 -21
15 -3 8 -2 15 3 15 5 0 14 -7 21 -15z m847 -11 c-9 -9 -28 6 -21 18 4 6 10 6
17 -1 6 -6 8 -13 4 -17z m-920 -20 c8 -21 -13 -42 -28 -27 -13 13 -5 43 11 43
6 0 13 -7 17 -16z m-669 -33 c8 -23 7 -32 -3 -41 -20 -17 -40 23 -25 50 14 26
16 25 28 -9z m572 19 c0 -5 -10 -10 -22 -10 -19 0 -20 2 -8 10 19 13 30 13 30
0z m-50 -54 c0 -2 -7 -9 -15 -16 -13 -11 -14 -10 -9 4 5 14 24 23 24 12z m211
-47 c9 -30 9 -43 1 -51 -8 -8 -13 -6 -18 8 -3 10 -10 31 -16 46 -10 28 -3 52
12 43 5 -3 15 -24 21 -46z m-268 11 c3 -11 1 -20 -4 -20 -5 0 -9 9 -9 20 0 11
2 20 4 20 2 0 6 -9 9 -20z m200 -12 c6 -22 2 -58 -11 -88 -7 -17 -19 66 -14
93 6 24 19 21 25 -5z m777 -49 c0 -5 -4 -9 -10 -9 -5 0 -10 7 -10 16 0 8 5 12
10 9 6 -3 10 -10 10 -16z m-204 1 c17 0 24 -6 24 -20 0 -12 -7 -20 -16 -20
-14 0 -15 -7 -10 -42 4 -24 12 -58 18 -75 15 -40 2 -55 -21 -26 -16 19 -20 20
-33 6 -13 -12 -20 -13 -39 -3 -13 7 -36 13 -51 12 -36 -1 -46 16 -20 34 12 8
25 36 32 66 16 69 27 81 63 74 16 -3 40 -6 53 -6z m61 -77 c-3 -10 -5 -4 -5
12 0 17 2 24 5 18 2 -7 2 -21 0 -30z m0 -88 c22 -49 15 -70 -10 -31 -20 30
-32 76 -20 76 5 0 19 -20 30 -45z m-497 -24 c0 -17 -4 -33 -10 -36 -6 -4 -10
8 -10 29 0 20 5 36 10 36 6 0 10 -13 10 -29z m282 -4 c12 -20 -32 -147 -52
-147 -17 0 -60 74 -60 102 0 39 37 71 75 64 16 -4 32 -12 37 -19z m-662 -17
c0 -20 -5 -30 -15 -30 -17 0 -18 4 -9 38 9 32 24 27 24 -8z m452 -27 c26 -23
22 -33 -11 -33 -33 0 -46 13 -37 35 7 20 25 19 48 -2z m303 -3 c3 -5 1 -10 -4
-10 -6 0 -11 5 -11 10 0 6 2 10 4 10 3 0 8 -4 11 -10z m-662 -62 c3 -18 8 -43
12 -55 4 -14 3 -23 -3 -23 -12 0 -17 14 -27 73 -3 21 -2 37 3 37 6 0 12 -15
15 -32z m-53 -3 c0 -8 -4 -17 -10 -20 -6 -4 -10 5 -10 20 0 15 4 24 10 20 6
-3 10 -12 10 -20z m669 -85 c-4 -20 -12 -25 -35 -25 -27 0 -29 2 -26 35 4 41
26 86 44 93 15 5 27 -64 17 -103z m72 67 c-1 -12 -15 -9 -19 4 -3 6 1 10 8 8
6 -3 11 -8 11 -12z m-740 -64 c-8 -15 -10 -15 -11 -2 0 17 10 32 18 25 2 -3
-1 -13 -7 -23z m720 -20 c-10 -17 -10 -16 -11 3 0 23 13 41 18 25 2 -6 -1 -18
-7 -28z"/>
<path d="M2705 4200 c-8 -13 5 -13 25 0 13 8 13 10 -2 10 -9 0 -20 -4 -23 -10z"/>
<path d="M2913 3953 c9 -2 25 -2 35 0 9 3 1 5 -18 5 -19 0 -27 -2 -17 -5z"/>
<path d="M2790 3710 c0 -12 17 -12 45 0 17 7 15 9 -12 9 -18 1 -33 -3 -33 -9z"/>
<path d="M2725 3700 c-3 -5 1 -10 9 -10 8 0 18 5 21 10 3 6 -1 10 -9 10 -8 0
-18 -4 -21 -10z"/>
<path d="M2640 3640 c-12 -8 -11 -10 5 -9 11 1 34 5 50 9 l30 8 -35 1 c-19 0
-42 -4 -50 -9z"/>
<path d="M2368 3553 c7 -3 16 -2 19 1 4 3 -2 6 -13 5 -11 0 -14 -3 -6 -6z"/>
<path d="M2728 3513 c7 -3 16 -2 19 1 4 3 -2 6 -13 5 -11 0 -14 -3 -6 -6z"/>
<path d="M2678 3453 c6 -2 18 -2 25 0 6 3 1 5 -13 5 -14 0 -19 -2 -12 -5z"/>
<path d="M2628 3443 c7 -3 16 -2 19 1 4 3 -2 6 -13 5 -11 0 -14 -3 -6 -6z"/>
<path d="M2330 3690 c0 -5 5 -10 10 -10 6 0 10 5 10 10 0 6 -4 10 -10 10 -5 0
-10 -4 -10 -10z"/>
<path d="M3384 3300 c-12 -5 -25 -13 -29 -19 -10 -18 18 -12 50 9 30 20 18 26
-21 10z"/>
<path d="M2260 3400 c-8 -5 -11 -12 -8 -16 10 -9 38 3 38 16 0 12 -10 13 -30
0z"/>
<path d="M2790 3140 c0 -5 4 -10 9 -10 6 0 13 5 16 10 3 6 -1 10 -9 10 -9 0
-16 -4 -16 -10z"/>
<path d="M3074 3145 c-10 -8 -14 -15 -8 -15 5 0 19 7 30 15 10 8 14 15 8 15
-5 0 -19 -7 -30 -15z"/>
<path d="M2985 3110 c-3 -5 -2 -10 4 -10 5 0 13 5 16 10 3 6 2 10 -4 10 -5 0
-13 -4 -16 -10z"/>
<path d="M3210 1852 c0 -18 12 -42 21 -42 14 0 10 26 -6 40 -9 8 -15 8 -15 2z"/>
<path d="M3160 1758 c1 -7 19 -47 41 -88 44 -84 42 -58 -4 38 -30 62 -37 73
-37 50z"/>
<path d="M3160 1641 c0 -6 4 -13 10 -16 6 -3 7 1 4 9 -7 18 -14 21 -14 7z"/>
<path d="M3268 1595 c-4 -49 8 -74 36 -75 11 0 -2 48 -20 74 -14 20 -14 20
-16 1z"/>
<path d="M3150 1535 c0 -16 27 -32 37 -21 7 7 -16 36 -28 36 -5 0 -9 -7 -9
-15z"/>
<path d="M3200 1537 c0 -8 9 -17 21 -20 15 -4 19 -1 17 11 -4 21 -38 29 -38 9z"/>
<path d="M3152 1388 c6 -18 28 -21 28 -4 0 9 -7 16 -16 16 -9 0 -14 -5 -12
-12z"/>
<path d="M3132 1323 c24 -49 32 -63 40 -63 11 0 10 17 -2 25 -5 3 -10 15 -10
26 0 11 -7 19 -16 19 -9 0 -14 -3 -12 -7z"/>
<path d="M3130 1238 c0 -8 9 -23 20 -33 16 -15 20 -15 20 -3 0 8 -9 23 -20 33
-16 15 -20 15 -20 3z"/>
<path d="M3190 756 c0 -4 7 -23 16 -42 18 -38 39 -46 29 -11 -7 23 -45 68 -45
53z"/>
<path d="M3710 1179 c0 -5 5 -7 10 -4 6 3 10 8 10 11 0 2 -4 4 -10 4 -5 0 -10
-5 -10 -11z"/>
<path d="M2691 890 c0 -33 1 -34 11 -12 8 17 8 26 0 34 -9 9 -12 4 -11 -22z"/>
<path d="M3475 790 c-3 -5 1 -22 9 -37 l15 -28 1 38 c0 35 -12 48 -25 27z"/>
<path d="M2988 4583 c6 -2 18 -2 25 0 6 3 1 5 -13 5 -14 0 -19 -2 -12 -5z"/>
<path d="M3055 4360 c-3 -6 1 -7 9 -4 18 7 21 14 7 14 -6 0 -13 -4 -16 -10z"/>
<path d="M2935 4260 c-7 -11 9 -11 45 0 24 8 24 8 -7 9 -17 1 -35 -3 -38 -9z"/>
<path d="M3571 1088 c-1 -21 4 -38 9 -38 11 0 11 14 0 50 -7 22 -8 21 -9 -12z"/>
<path d="M3458 1104 c-11 -11 -10 -78 2 -108 13 -36 34 -34 24 2 -4 15 -10 47
-13 70 -3 24 -9 40 -13 36z"/>
<path d="M3507 1020 c3 -25 10 -49 15 -55 6 -6 7 5 2 30 -10 58 -24 78 -17 25z"/>
<path d="M3400 1002 c0 -5 12 -17 26 -27 17 -11 25 -13 22 -4 -5 16 -48 44
-48 31z"/>
<path d="M3560 980 c0 -5 5 -10 11 -10 5 0 7 5 4 10 -3 6 -8 10 -11 10 -2 0
-4 -4 -4 -10z"/>
</g>
</svg>
